<svg width="71" height="71" viewBox="0 0 71 71" fill="none" xmlns="http://www.w3.org/2000/svg">
<path fill-rule="evenodd" clip-rule="evenodd" d="M48.9663 65.4768C44.7063 65.3201 32.6334 63.6516 19.9894 51.0106C7.34848 38.3667 5.68294 26.2967 5.52319 22.0337C5.28652 15.5372 10.2624 9.2271 16.0105 6.76281C16.7027 6.46392 17.4607 6.35012 18.2101 6.43259C18.9595 6.51505 19.6746 6.79094 20.2853 7.23318C25.0186 10.6826 28.2846 15.9011 31.0891 20.0043C31.7062 20.9058 31.97 22.0028 31.8303 23.0863C31.6907 24.1698 31.1573 25.164 30.3318 25.8796L24.5601 30.1662C24.2812 30.3675 24.0849 30.6633 24.0077 30.9984C23.9304 31.3336 23.9774 31.6854 24.14 31.9885C25.4476 34.3641 27.7728 37.9022 30.4353 40.5647C33.0978 43.2272 36.8046 45.7063 39.3458 47.1618C39.6644 47.3407 40.0395 47.3907 40.3938 47.3015C40.7482 47.2124 41.0549 46.9909 41.251 46.6826L45.0081 40.9641C45.6988 40.0466 46.7178 39.4319 47.8515 39.2488C48.9853 39.0657 50.146 39.3284 51.0904 39.9819C55.2528 42.8633 60.1104 46.0731 63.6663 50.626C64.1444 51.2411 64.4486 51.9733 64.5469 52.7461C64.6453 53.5189 64.5342 54.3039 64.2254 55.0191C61.7493 60.7968 55.4835 65.7165 48.9663 65.4768Z" fill="black"/>
</svg>
